<?xml version="1.0" encoding="UTF-8" standalone="no"?>
<!-- Created with Inkscape (http://www.inkscape.org/) -->

<svg
   width="501"
   height="522.5"
   viewBox="0 0 100.2 104.5"
   version="1.1"
   id="svg5"
   xml:space="preserve"
   xmlns="http://www.w3.org/2000/svg"
   xmlns:svg="http://www.w3.org/2000/svg"
   xmlns:rdf="http://www.w3.org/1999/02/22-rdf-syntax-ns#"
   xmlns:cc="http://creativecommons.org/ns#"
   xmlns:dc="http://purl.org/dc/elements/1.1/"><title
     id="title8866">Bangladesh Jamaat-e-Islami (Bangladesh Islamic Party)-বাংলাদেশ জামায়াতে ইসলামী</title><defs
     id="defs2" /><g
     id="layer1"
     transform="translate(-50.288611,-40.296489)"><g
       id="g8744"
       transform="matrix(0.86638013,0,0,0.86638013,24.175502,6.6225329)"><path
         style="font-variation-settings:normal;opacity:1;fill:#ffffff;fill-opacity:1;stroke:none;stroke-width:0.5;stroke-linecap:butt;stroke-linejoin:miter;stroke-miterlimit:4;stroke-dasharray:none;stroke-dashoffset:0;stroke-opacity:1;stop-color:#000000;stop-opacity:1"
         d="M 87.61053,45.679098 82.3,54.9 70.2,66.4 52.2,81 l -11,10.6 -4.4,15.4 2.2,14.4 10.4,13.2 21.8,5.2 32.6,2.2 20.4,-5.6 11,-11.4 4.4,-15 L 138.8,99.2 126,83.2 111.4,70.6 101.25769,62.791082 95.05,56.35 l -5.15,-7 z"
         id="path8736" /><g
         id="g8686"
         transform="translate(-41.199999,-2.4000002)"><g
           id="g6318"
           style="display:inline"
           transform="matrix(0.94159204,0,0,1.0931698,27.890786,12.209962)"><path
             id="path355"
             style="font-variation-settings:normal;opacity:1;fill:#018f39;fill-opacity:1;stroke:none;stroke-width:0.5;stroke-linecap:butt;stroke-linejoin:miter;stroke-miterlimit:4;stroke-dasharray:none;stroke-dashoffset:0;stroke-opacity:1;stop-color:#000000;stop-opacity:1"
             d="m 107.55859,26.673828 v 0.0012 C 101.97563,45.923252 83.416851,51.452322 68.510937,61.086356 58.653598,67.457385 41.937536,80.95548 47.305469,97.583231 c 2.550457,7.900319 8.155302,14.104239 16.628906,18.598439 H 51.950076 a 0.70710678,0.70710678 135 0 0 -0.707107,0.70711 v 19.22911 c 0,0.39053 0.316582,0.70683 0.707107,0.70649 37.07248,-0.0323 74.144954,-0.0126 111.217434,3.7e-4 0.39052,1.4e-4 0.7071,-0.31633 0.7071,-0.70686 v -19.22914 a 0.70710678,0.70710678 45 0 0 -0.70711,-0.70711 h -11.9843 c 8.47361,-4.4942 14.07845,-10.69812 16.62891,-18.598437 C 173.18004,80.955452 156.46398,67.457357 146.60664,61.086328 131.70073,51.452294 113.14195,45.923224 107.55898,26.675 c -3e-5,-1.21e-4 4e-5,-2.7e-4 0,-3.91e-4 -8e-5,-2.77e-4 -3.1e-4,-5.03e-4 -3.9e-4,-7.81e-4 z m -1.13906,10.16836 v 5.682421 c 0,1.53393 -3.01175,2.075328 -3.34648,-0.901953 1.32068,-1.568731 2.44284,-3.16678 3.34648,-4.780468 z m 2.27852,0 c 0.90364,1.613688 2.0258,3.211737 3.34648,4.780468 -0.33473,2.977281 -3.34648,2.435883 -3.34648,0.901953 z m -10.080862,9.304296 -0.0098,0.01563 c 0.872873,2.525434 3.676672,3.714427 6.445312,4.096094 v 3.686328 h -9.57539 c -0.710513,6e-6 -1.336333,0.467503 -1.537891,1.148828 l -7.267187,24.573438 c -1.357549,4.590284 1.831034,9.06914 8.80625,9.069141 6.975208,0 10.163758,-4.478857 8.806258,-9.069141 l -6.66599,-22.54063 c -0.133318,-0.451262 0.204848,-0.903844 0.675391,-0.903906 h 6.758589 c -0.0602,1.147967 0.23119,2.638672 2.50625,2.638672 2.27507,0 2.56645,-1.490705 2.50625,-2.638672 h 6.7586 c 0.47054,6.2e-5 0.80871,0.452645 0.67539,0.903906 l -6.66602,22.540625 c -1.35751,4.590284 1.83105,9.069141 8.80625,9.069141 6.97523,-10e-7 10.1638,-4.478857 8.80625,-9.069141 l -7.26718,-24.573438 c -0.20156,-0.681328 -0.82738,-1.148826 -1.5379,-1.148828 h -9.57539 v -3.686328 c 2.76865,-0.381667 5.57245,-1.57066 6.44532,-4.096094 l -0.0102,-0.01563 c 1.63739,1.448385 3.43728,2.858277 5.39492,4.214454 13.54575,9.383932 32.04704,22.225756 35.29844,34.609765 4.94771,18.844962 -11.70935,31.210942 -38.40937,31.210942 H 96.333163 c -26.700031,0 -43.357081,-12.36598 -38.409375,-31.210942 3.251397,-12.384009 21.752696,-25.225833 35.298438,-34.609765 1.957643,-1.356177 3.757538,-2.766069 5.394922,-4.214454 z m -4.911719,21.196094 c 0.01913,-9.66e-4 0.03841,-8.43e-4 0.05742,0 0.344653,0.01528 0.660546,0.324256 0.660547,0.802735 v 12.644531 c 0,0.35637 -0.203079,0.847812 -0.488282,1.05039 -2.384305,1.693613 -4.714862,-0.636848 -4.117578,-2.722265 l 3.162891,-11.04336 c 0.14235,-0.497009 0.438022,-0.71754 0.725,-0.732031 z m 3.489062,0 c 0.30411,-0.01349 0.630197,0.201888 0.782031,0.732031 l 3.163278,11.04336 c 0.59729,2.085417 -1.733655,4.415878 -4.117965,2.722265 -0.285202,-0.202578 -0.488281,-0.69402 -0.488281,-1.05039 V 68.145313 c 1e-6,-0.478479 0.316285,-0.787455 0.660937,-0.802735 z m 20.728519,0 c 0.34465,0.01528 0.66093,0.324256 0.66093,0.802735 v 12.644531 c 0,0.35637 -0.20308,0.847812 -0.48828,1.05039 -2.38431,1.693613 -4.71526,-0.636848 -4.11797,-2.722265 l 3.16329,-11.04336 c 0.15183,-0.530143 0.47792,-0.745521 0.78203,-0.732031 z m 3.43203,0 c 0.019,-8.43e-4 0.0379,-9.66e-4 0.057,0 h 3.9e-4 c 0.28698,0.01449 0.58265,0.235022 0.725,0.732031 l 3.16289,11.04336 c 0.59729,2.085417 -1.73328,4.415878 -4.11758,2.722265 -0.28521,-0.202578 -0.48828,-0.69402 -0.48828,-1.05039 V 68.145313 c 10e-6,-0.478479 0.3159,-0.787455 0.66055,-0.802735 z" /><path
             id="path2913"
             style="font-variation-settings:normal;opacity:1;fill:#aa1d22;fill-opacity:1;stroke:none;stroke-width:0.3;stroke-linecap:butt;stroke-linejoin:miter;stroke-miterlimit:4;stroke-dasharray:none;stroke-dashoffset:0;stroke-opacity:1;stop-color:#000000;stop-opacity:1"
             d="m 126.78633,60.652344 c -1.07134,-0.01751 -1.88347,0.778607 -0.55,2.333203 C 132.78014,70.614513 138.15808,94.505266 125.2,100.65 119.36423,103.41733 109.15,93.979109 109.15,85 V 63.737891 a 1,1 45 0 0 -1,-1 h -1.18242 a 1,1 135 0 0 -1,1 v 21.857422 c 0,12.786374 -14.417962,22.432227 -22.246096,7.124218 -4.25577,-8.32221 0.402116,-23.129619 3.767387,-29.38203 0.270868,-0.503251 0.07427,-0.74418 -0.458511,-0.537224 -30.929871,12.014439 -26.840179,53.022313 -5.547715,41.574383 0.335647,-0.18046 0.818259,-0.11395 1.093638,0.14948 7.155958,6.84531 18.486147,7.99057 25.167277,-3.01721 0.30432,-0.50138 0.82791,-0.54755 1.20659,-0.0996 7.51249,8.88626 16.95302,12.27802 24.17378,2.54278 0.17947,-0.24197 0.54294,-0.34252 0.82045,-0.22528 25.77591,10.88975 15.61563,-34.475984 5.96151,-36.7034 -0.46998,-0.108436 -0.68479,0.264872 -0.46413,0.695487 4.98136,9.721071 9.21633,24.67726 2.98715,32.745223 -1.76775,2.28957 -4.74129,2.02717 -6.36587,-0.541033 -0.25498,-0.403073 -0.21925,-1.097828 -6.1e-4,-1.522098 C 143.65281,83.670257 135.13035,65.811468 128.05,61.05 c -0.3855,-0.259248 -0.84445,-0.390805 -1.26367,-0.397656 z m -43.889942,7.90288 C 79.982589,74.661948 77.053822,83.462502 76.8,97.175 76.75807,99.440466 71.743433,102.11381 69.948828,96.6 65.619491,83.298374 76.728316,71.571754 82.444176,68.124964 c 0.489332,-0.295078 0.698353,-0.0856 0.452212,0.43026 z" /></g><path
           id="path6337"
           style="font-variation-settings:normal;fill:#ffffff;fill-opacity:1;stroke:none;stroke-width:0.121746;stroke-linecap:butt;stroke-linejoin:miter;stroke-miterlimit:4;stroke-dasharray:none;stroke-dashoffset:0;stroke-opacity:1;stop-color:#000000"
           d="m 164.39963,140.07124 c -0.14091,0.008 -0.27432,0.076 -0.37407,0.19174 l -0.50205,0.58287 c -0.22101,0.25659 -0.22101,0.67261 0,0.9292 l 0.50205,0.58289 c 0.22101,0.25659 0.57935,0.25659 0.80036,0 l 0.50206,-0.58289 c 0.22101,-0.25659 0.22101,-0.67261 0,-0.9292 l -0.50206,-0.58287 c -0.11255,-0.13067 -0.26729,-0.20026 -0.42629,-0.19174 z m 3.229,0 c -0.14091,0.008 -0.27431,0.076 -0.37407,0.19174 l -0.50169,0.58287 c -0.22101,0.25659 -0.22101,0.67261 0,0.9292 l 0.50169,0.58289 c 0.22101,0.25659 0.57935,0.25659 0.80036,0 l 0.50205,-0.58289 c 0.22101,-0.25659 0.22101,-0.67261 0,-0.9292 l -0.50205,-0.58287 c -0.11255,-0.13067 -0.26729,-0.20026 -0.42629,-0.19174 z m 5.00583,1.17559 c -0.16832,0.005 -0.33483,0.12924 -0.42277,0.32197 -0.54113,1.18583 -1.16813,2.33815 -0.64162,3.94395 0.055,0.16775 0.11539,0.4449 0.12262,0.62559 l 0.23102,5.77543 c 0.0146,0.36596 0.13166,0.71446 0.3314,0.98642 l 0.65622,0.89247 c 0.15466,0.21049 0.38369,0.19078 0.50545,-0.0491 0.29483,-0.58091 0.43419,-0.93918 0.51829,-1.21785 0.1237,-0.40995 0.18835,-1.11105 0.1862,-1.54838 l -0.0368,-7.43398 c -0.002,-0.43797 -0.17632,-1.07888 -0.41895,-1.39934 -0.30302,-0.40024 -0.56468,-0.64872 -0.80731,-0.82629 -0.0701,-0.0514 -0.14721,-0.0732 -0.22372,-0.0708 z m -45.20024,0.27884 c -0.15042,0.005 -0.29894,0.12962 -0.37753,0.3224 -0.48356,1.18622 -1.04394,2.33847 -0.57343,3.9448 0.0491,0.16781 0.10345,0.44526 0.10938,0.62602 l 0.20651,5.77714 c 0.0131,0.36614 0.11774,0.7148 0.29632,0.98685 l 0.58636,0.8929 c 0.13822,0.21057 0.34264,0.19085 0.45145,-0.0491 0.26348,-0.58109 0.38828,-0.93953 0.46338,-1.21828 0.11051,-0.41009 0.16809,-1.11175 0.1664,-1.54923 l -0.0328,-7.43611 c -0.002,-0.43811 -0.15775,-1.0792 -0.37456,-1.39977 -0.27079,-0.40036 -0.50476,-0.64868 -0.72159,-0.82629 -0.0627,-0.0514 -0.1315,-0.0737 -0.19987,-0.0713 z m 7.11547,0.72593 c -0.18704,0.001 -0.37777,0.0809 -0.50243,0.23316 -0.62779,0.767 -0.83445,1.80907 -0.51678,2.60994 0.0845,0.21281 0.2009,0.55124 0.21261,0.78571 l 0.1085,2.17012 c 0.0128,0.25667 0.19313,0.45897 0.41451,0.46503 l 0.64919,0.0175 c 0.21888,0.005 0.40267,-0.19001 0.41637,-0.44368 l 0.14049,-2.59926 c 6.5e-4,-1.15294 -0.0523,-2.23692 -0.40164,-2.93832 -0.10171,-0.20418 -0.30884,-0.30205 -0.52082,-0.3002 z m -11.29322,0.0487 c -0.36198,-0.008 -0.64452,0.38099 -0.61645,1.25757 l 0.0879,2.75257 c 0.006,0.17427 0.0805,0.43168 0.1519,0.58502 2.00468,3.70473 -0.73925,8.18385 -4.16139,2.51387 -0.28544,-0.50953 -0.99145,-0.49755 -1.15639,0.10035 -1.01351,3.67395 -4.07218,4.05234 -8.25622,2.70559 -0.91684,-0.29511 -2.27848,0.17971 -0.59916,1.7004 1.65902,1.5023 6.64495,2.75614 9.60461,-0.20924 0.32289,-0.32352 0.82851,-0.39447 1.18839,-0.1281 4.16633,3.08362 5.54051,0.24502 5.51934,-1.42668 l -0.0886,-6.99287 c -0.008,-0.58911 -0.17126,-1.1612 -0.46932,-1.63804 l -0.42409,-0.67811 c -0.248,-0.3465 -0.53281,-0.53709 -0.78048,-0.54232 z m 44.20848,1.07438 c -0.23039,-2.3e-4 -0.45248,0.0422 -0.65176,0.11402 -2.86149,1.03091 -2.10671,4.88613 0.49765,5.02217 0.24982,0.013 0.5264,0.2077 0.58114,0.49108 0.19917,1.03105 -0.0171,2.04985 -1.3848,2.08385 l -3.29558,0.082 c -1.65145,0.0411 -3.22598,0.2672 -4.17353,-2.10905 -0.2496,-0.62595 -0.99179,-0.89817 -1.18251,-0.0432 -0.25112,1.12592 -2.06962,2.94157 -4.56598,2.37593 -0.36262,-0.0822 -0.80155,-0.49675 -1.03281,-0.83141 -1.30376,-1.88665 -3.74686,-3.24943 -5.03678,0.66274 -0.0641,0.19436 -0.25224,0.38847 -0.42923,0.42147 -1.23438,0.23015 -2.28297,0.10156 -3.33089,-0.0291 -0.1679,-0.0209 -0.31497,-0.19757 -0.35861,-0.38688 -0.50851,-2.20584 -4.07257,-4.7878 -5.07724,-1.20847 -0.78793,2.80715 0.76633,3.95799 2.47903,4.2702 0.13638,0.0248 0.23703,0.16898 0.20892,0.32582 -0.61823,3.44947 -6.24788,1.7457 -6.53009,4.08998 -0.0136,0.11256 0.0666,0.22454 0.16257,0.24768 3.97315,0.95753 7.15953,0.66149 8.58246,-4.63017 0.0505,-0.18753 0.19685,-0.43826 0.34354,-0.53592 1.01304,-0.67449 2.32464,-0.47979 3.39856,0.17936 0.23742,0.14572 0.49355,0.52678 0.6113,0.80706 1.47806,3.51831 4.88444,2.91194 5.77829,-0.71355 0.0657,-0.26654 0.29017,-0.43649 0.52596,-0.39286 1.82627,0.33791 3.15181,-0.33848 4.15882,-1.27551 0.27123,-0.25238 0.62321,-0.19954 0.86693,0.0876 0.61772,0.72762 1.40197,1.01118 2.08253,1.01118 h 6.85009 c 1.97567,0 2.40944,-1.33636 2.35398,-2.65094 l -0.16478,-3.90808 c -0.11587,-2.74822 -1.26885,-3.55605 -2.26718,-3.55708 z m -63.74504,5.67124 c -0.20607,0 -0.29151,0.17096 -0.2262,0.39757 0.49372,1.71291 -0.10685,4.90408 -3.775566,3.08094 -1.009513,-0.50166 -1.802993,-1.36873 -2.46322,1.46852 -0.969251,4.16524 -4.969859,6.16445 -11.185818,2.20299 -0.748613,-0.47705 -1.329618,-0.46068 -1.743049,-0.22076 -0.09768,0.0567 -0.140342,0.21554 -0.09416,0.33051 1.390892,3.46251 10.979949,8.37814 14.42622,-0.0132 0.157376,-0.3832 0.548462,-0.60673 0.904075,-0.50772 6.027778,1.67822 6.067578,-3.605 5.654338,-6.31391 -0.0359,-0.23558 -0.23897,-0.4249 -0.44505,-0.4249 z m 46.07254,1.99718 c 0.7744,-0.007 1.48133,0.77271 1.64962,1.81782 0.1845,1.14538 -0.34045,2.19684 -1.17257,2.34861 -0.83229,0.15182 -1.65669,-0.65386 -1.84126,-1.79946 -0.18449,-1.14538 0.34045,-2.19684 1.17258,-2.34861 0.0632,-0.0116 0.12718,-0.0177 0.19163,-0.0184 z m -57.909013,1.61841 c -0.140912,0.008 -0.274314,0.076 -0.374063,0.19173 l -0.50206,0.58288 c -0.22101,0.25658 -0.22101,0.6726 0,0.92919 l 0.50206,0.58288 c 0.221012,0.25659 0.579342,0.25659 0.800353,0 l 0.50206,-0.58288 c 0.221011,-0.25659 0.221011,-0.67261 0,-0.92919 l -0.50206,-0.58288 c -0.112551,-0.13067 -0.267292,-0.20026 -0.42629,-0.19173 z m 64.889293,1.5663 c -0.14091,0.008 -0.27431,0.076 -0.37406,0.19173 l -0.50206,0.58288 c -0.22101,0.25659 -0.22101,0.67261 0,0.92919 l 0.50206,0.58289 c 0.22101,0.25659 0.57934,0.25659 0.80035,0 l 0.50207,-0.58289 c 0.22101,-0.25658 0.22101,-0.6726 0,-0.92919 l -0.50207,-0.58288 c -0.11255,-0.13066 -0.26729,-0.20026 -0.42629,-0.19173 z m 3.22901,0 c -0.14091,0.008 -0.27432,0.076 -0.37407,0.19173 l -0.50169,0.58288 c -0.22101,0.25659 -0.22101,0.67261 0,0.92919 l 0.50169,0.58289 c 0.22101,0.25659 0.57934,0.25659 0.80035,0 l 0.50206,-0.58289 c 0.22101,-0.25658 0.22101,-0.6726 0,-0.92919 l -0.50206,-0.58288 c -0.11255,-0.13066 -0.26729,-0.20026 -0.42628,-0.19173 z m -59.65795,2.85463 c -0.14091,0.008 -0.27431,0.076 -0.374065,0.19173 l -0.502059,0.58245 c -0.221011,0.25659 -0.221011,0.67261 0,0.9292 l 0.502059,0.58287 c 0.221015,0.25659 0.579345,0.25659 0.800355,0 l 0.50206,-0.58287 c 0.22101,-0.25659 0.22101,-0.67261 0,-0.9292 l -0.50206,-0.58245 c -0.11255,-0.13067 -0.26729,-0.20026 -0.42629,-0.19173 z m 3.229,0 c -0.14091,0.008 -0.27431,0.076 -0.37406,0.19173 l -0.50169,0.58245 c -0.22101,0.25659 -0.22101,0.67261 0,0.9292 l 0.50169,0.58287 c 0.22101,0.25659 0.57934,0.25659 0.80035,0 l 0.50206,-0.58287 c 0.22101,-0.25659 0.22101,-0.67261 0,-0.9292 l -0.50206,-0.58245 c -0.11255,-0.13067 -0.26729,-0.20026 -0.42629,-0.19173 z" /></g></g></g><metadata
     id="metadata8864"><rdf:RDF><cc:Work
         rdf:about=""><dc:title>Bangladesh Jamaat-e-Islami (Bangladesh Islamic Party)-বাংলাদেশ জামায়াতে ইসলামী</dc:title></cc:Work></rdf:RDF></metadata></svg>
